<svg width="612" height="402" viewBox="0 0 612 402" fill="none" xmlns="http://www.w3.org/2000/svg">
<path d="M601.33 95.04L591.76 141.39L585.6 135.38L575.12 142.86L567.11 132.91L549.15 145.97L533.8 120.3L516.68 130.33L509.89 120.97L488.15 133.22L481.61 119.21L496.85 45.4L578.55 62.27L601.33 95.04Z" fill="#EBEBEB"/>
<path d="M578.55 62.27L601.33 95.04L572.99 89.19L578.55 62.27Z" fill="#DBDBDB"/>
<path d="M589.72 150.65L575.69 218.65L465.64 195.93L479.57 128.48L486.11 142.48L507.86 130.23L514.64 139.59L531.77 129.57L547.11 155.24L565.08 142.18L573.08 152.12L583.57 144.65L589.72 150.65Z" fill="#EBEBEB"/>
<path d="M432.21 142.68L320.06 149.62L311.15 5.66L394.43 0.5L425 26.15L432.21 142.68Z" fill="#EBEBEB"/>
<path d="M394.43 0.5L425 26.15L396.12 27.94L394.43 0.5Z" fill="#DBDBDB"/>
<path d="M363.38 97.37L362.94 94.12C361.81 87.39 363.65 79.86 369.5 71.99C374.78 64.99 377.64 59.99 377.32 54.31C376.96 47.91 372.71 43.87 364.8 44.19C360.279 44.4248 355.937 46.0291 352.35 48.79L348.9 41.06C352.9 37.81 359.9 35.41 366.55 35.06C380.98 34.26 388 42.8 388.55 52.33C389.03 60.86 384.61 67.27 378.99 74.76C373.83 81.59 372.14 87.22 372.87 93.59L373.18 96.85L363.38 97.37ZM361.6 115.08C361.34 110.44 364.29 107 368.68 106.76C373.07 106.52 376.27 109.6 376.53 114.25C376.77 118.64 374.08 122.18 369.44 122.44C365.01 122.69 361.81 119.47 361.56 115.08H361.6Z" fill="#DBDBDB"/>
<path d="M82.86 72.88L71.58 67.77L70.01 71.22C69.7782 71.713 69.4165 72.1336 68.9637 72.4367C68.5109 72.7397 67.9842 72.9137 67.44 72.94C66.8201 72.9603 66.2022 73.0205 65.59 73.12C65.0526 73.1998 64.5037 73.1322 64.0017 72.9244C63.4998 72.7165 63.0637 72.3763 62.74 71.94L60.53 68.85L50.46 76.07L52.67 79.16C52.9774 79.606 53.1583 80.1269 53.1935 80.6674C53.2287 81.2079 53.1169 81.7479 52.87 82.23C52.5849 82.7799 52.3279 83.344 52.1 83.92C51.9019 84.4279 51.5691 84.8722 51.1375 85.2052C50.7058 85.5382 50.1916 85.7473 49.65 85.81L45.88 86.18L47.09 98.51L50.88 98.13C51.4235 98.0866 51.9686 98.1921 52.4567 98.4353C52.9447 98.6784 53.3573 99.05 53.65 99.51C53.81 99.77 53.98 100.02 54.16 100.27C54.34 100.52 54.52 100.76 54.71 101C55.0551 101.42 55.277 101.927 55.3512 102.466C55.4253 103.004 55.3487 103.552 55.13 104.05L53.55 107.53L64.84 112.65L66.41 109.18C66.644 108.687 67.0079 108.268 67.4624 107.967C67.917 107.665 68.4451 107.494 68.99 107.47C69.6029 107.445 70.2139 107.385 70.82 107.29C71.3574 107.21 71.9063 107.278 72.4083 107.486C72.9102 107.693 73.3463 108.034 73.67 108.47L75.88 111.56L85.96 104.34L83.75 101.25C83.4332 100.808 83.2465 100.286 83.2111 99.7436C83.1758 99.201 83.2932 98.6593 83.55 98.18C83.8286 97.6332 84.0789 97.0725 84.3 96.5C84.4923 95.9884 84.8235 95.5405 85.2562 95.2066C85.689 94.8728 86.2063 94.6661 86.75 94.61L90.54 94.23L89.32 81.9L85.53 82.27C84.9899 82.3174 84.4471 82.2146 83.9618 81.9728C83.4765 81.731 83.0675 81.3597 82.78 80.9C82.61 80.64 82.44 80.39 82.26 80.14C82.08 79.89 81.9 79.64 81.71 79.41C81.3672 78.985 81.147 78.4744 81.073 77.9334C80.9989 77.3924 81.074 76.8415 81.29 76.34L82.86 72.88ZM76.46 84.29C77.6294 85.9219 78.2886 87.8639 78.3542 89.8704C78.4198 91.877 77.8889 93.8579 76.8287 95.5627C75.7684 97.2675 74.2263 98.6196 72.3976 99.4479C70.5688 100.276 68.5355 100.544 66.5548 100.216C64.574 99.8891 62.7348 98.9817 61.2698 97.609C59.8047 96.2363 58.7797 94.46 58.3243 92.5048C57.8688 90.5495 58.0035 88.5031 58.7111 86.6243C59.4188 84.7456 60.6678 83.1189 62.3 81.95C64.4882 80.383 67.2091 79.7492 69.8645 80.188C72.5199 80.6268 74.8923 82.1023 76.46 84.29V84.29Z" fill="#EBEBEB"/>
<path d="M592.76 236.48L585.24 240.82L586.57 243.12C586.769 243.45 586.868 243.83 586.855 244.215C586.843 244.6 586.719 244.973 586.5 245.29C586.27 245.65 586.05 246.02 585.85 246.41C585.686 246.755 585.426 247.046 585.102 247.248C584.777 247.45 584.402 247.555 584.02 247.55H581.38V256.24H584.04C584.422 256.235 584.797 256.34 585.122 256.542C585.446 256.744 585.706 257.035 585.87 257.38C586.07 257.77 586.29 258.14 586.52 258.5C586.739 258.817 586.863 259.19 586.875 259.575C586.887 259.96 586.789 260.34 586.59 260.67L585.26 262.97L592.78 267.31L594.12 265C594.314 264.672 594.596 264.405 594.933 264.229C595.27 264.052 595.65 263.973 596.03 264H597.31C597.69 263.974 598.069 264.054 598.406 264.23C598.743 264.407 599.025 264.673 599.22 265L600.56 267.32L608.07 262.98L606.74 260.67C606.551 260.338 606.458 259.96 606.472 259.579C606.486 259.197 606.607 258.827 606.82 258.51C607.05 258.15 607.27 257.77 607.47 257.39C607.634 257.045 607.894 256.754 608.218 256.552C608.543 256.35 608.918 256.245 609.3 256.25H611.96V247.56H609.28C608.898 247.565 608.523 247.46 608.198 247.258C607.874 247.056 607.614 246.765 607.45 246.42C607.25 246.04 607.03 245.66 606.8 245.3C606.587 244.983 606.466 244.613 606.452 244.231C606.438 243.85 606.531 243.472 606.72 243.14L608.05 240.83L600.54 236.49L599.2 238.77C599.006 239.098 598.724 239.365 598.387 239.541C598.05 239.718 597.67 239.797 597.29 239.77H596.65H596.01C595.629 239.796 595.248 239.716 594.91 239.539C594.571 239.363 594.287 239.097 594.09 238.77L592.76 236.48ZM596.65 244.78C598.059 244.778 599.437 245.194 600.609 245.976C601.782 246.757 602.696 247.869 603.236 249.171C603.776 250.472 603.918 251.904 603.644 253.287C603.369 254.669 602.691 255.938 601.695 256.935C600.698 257.931 599.429 258.609 598.047 258.884C596.664 259.158 595.232 259.016 593.931 258.476C592.629 257.936 591.517 257.022 590.736 255.849C589.954 254.677 589.538 253.299 589.54 251.89C589.539 250.955 589.722 250.03 590.078 249.166C590.435 248.302 590.959 247.517 591.619 246.856C592.279 246.195 593.064 245.67 593.927 245.312C594.79 244.954 595.715 244.77 596.65 244.77V244.78Z" fill="#EBEBEB"/>
<path d="M105.68 35.93L98.79 41.21L100.38 43.32C100.617 43.6207 100.763 43.9831 100.8 44.3642C100.837 44.7453 100.765 45.1291 100.59 45.47C100.399 45.8593 100.232 46.26 100.09 46.67C99.9667 47.0312 99.7451 47.3508 99.4501 47.5928C99.155 47.8348 98.7983 47.9897 98.42 48.04L95.78 48.38L96.9 56.99L99.54 56.65C99.9243 56.5964 100.316 56.6525 100.67 56.8117C101.024 56.9709 101.325 57.2269 101.54 57.55C101.781 57.8979 102.041 58.2317 102.32 58.55C102.578 58.8333 102.748 59.1846 102.812 59.5622C102.876 59.9398 102.83 60.3278 102.68 60.68L101.68 63.14L109.68 66.47L110.68 64.01C110.829 63.6571 111.074 63.353 111.386 63.132C111.699 62.9111 112.068 62.7822 112.45 62.76L113.09 62.69L113.72 62.59C114.09 62.5203 114.472 62.5533 114.825 62.6855C115.177 62.8178 115.487 63.0441 115.72 63.34L117.35 65.47L124.24 60.19L122.63 58.08C122.397 57.7752 122.255 57.4115 122.217 57.0299C122.18 56.6483 122.251 56.2639 122.42 55.92C122.61 55.5334 122.777 55.136 122.92 54.73C123.043 54.3688 123.265 54.0492 123.56 53.8072C123.855 53.5652 124.212 53.4103 124.59 53.36L127.23 53.02L126.11 44.41L123.47 44.75C123.087 44.8046 122.696 44.7501 122.342 44.5926C121.988 44.4352 121.686 44.1813 121.47 43.86C121.22 43.5 120.96 43.16 120.68 42.86C120.447 42.5706 120.296 42.2239 120.243 41.8561C120.191 41.4884 120.238 41.1132 120.38 40.77L121.38 38.31L113.38 34.98L112.38 37.44C112.229 37.7915 111.984 38.0945 111.672 38.3151C111.359 38.5358 110.992 38.6655 110.61 38.69L109.97 38.75L109.38 38.77C109.01 38.8397 108.628 38.8067 108.275 38.6745C107.923 38.5422 107.613 38.3159 107.38 38.02L105.68 35.93ZM110.61 43.66C112.003 43.4809 113.418 43.7184 114.676 44.3425C115.934 44.9666 116.979 45.9493 117.68 47.1667C118.38 48.3841 118.704 49.7816 118.611 51.183C118.518 52.5843 118.012 53.9268 117.157 55.0409C116.302 56.155 115.136 56.9909 113.806 57.4432C112.477 57.8955 111.043 57.9439 109.686 57.5822C108.329 57.2206 107.109 56.4651 106.181 55.4111C105.253 54.3572 104.657 53.0519 104.47 51.66C104.345 50.7311 104.405 49.7868 104.646 48.8811C104.888 47.9755 105.306 47.1266 105.876 46.3831C106.447 45.6396 107.159 45.0163 107.971 44.5489C108.784 44.0816 109.68 43.7795 110.61 43.66Z" fill="#EBEBEB"/>
<path d="M54.2 261.55C54.5757 251.883 54.4422 242.203 53.8 232.55C52.3692 212.617 49.3293 192.833 44.71 173.39C42.17 162.45 39.05 151.69 35.79 140.94C35.69 140.61 35.17 140.7 35.26 141.04C45.33 178.94 53.59 218.04 53.02 257.44C52.86 268.44 51.58 279.29 50.54 290.25C50.54 290.54 50.99 290.66 51.06 290.36C53.13 280.95 53.81 271.13 54.2 261.55Z" fill="#EBEBEB"/>
<path d="M35.26 141.01C35.26 141.01 20.02 179.71 23.43 188.77C26.84 197.83 33.88 199.77 33.88 199.77C33.88 199.77 24.55 213.09 31.07 225.58C37.59 238.07 52.07 237.48 53.07 251.64C53.04 251.71 53.84 192.5 35.26 141.01Z" fill="#EBEBEB"/>
<path d="M51.38 227.26C51.4046 227.196 51.4046 227.124 51.38 227.06C49.3798 200.639 44.4221 174.526 36.6 149.21C36.6 149.14 36.45 149.16 36.47 149.21C39.49 160.543 42.1567 171.923 44.47 183.35C42.4211 181.409 39.9181 180.013 37.19 179.29C37.19 179.29 37.11 179.35 37.19 179.37C40.0559 180.42 42.6328 182.134 44.71 184.37C45.15 186.62 45.59 188.86 46 191.11C42.59 187.3 37.87 185.41 33.14 183.61C33.1293 183.615 33.1202 183.622 33.1138 183.632C33.1074 183.642 33.104 183.653 33.104 183.665C33.104 183.677 33.1074 183.688 33.1138 183.698C33.1202 183.708 33.1293 183.715 33.14 183.72C38.07 185.72 42.97 188.3 46.31 192.55C47.47 198.97 48.49 205.413 49.37 211.88C46.9078 209.301 43.7502 207.491 40.28 206.67C40.17 206.67 40.11 206.8 40.22 206.83C43.7848 207.88 46.9673 209.944 49.38 212.77H49.44C49.74 215.037 50.0267 217.313 50.3 219.6C48.3953 217.988 46.2447 216.692 43.93 215.76C43.87 215.76 43.83 215.83 43.93 215.85C46.2922 216.873 48.4553 218.305 50.32 220.08C50.32 220.08 50.37 220.08 50.4 220.08C50.65 222.25 50.9 224.42 51.12 226.59C47.6861 222.439 43.2297 219.254 38.19 217.35C38.1688 217.35 38.1484 217.358 38.1334 217.373C38.1184 217.388 38.11 217.409 38.11 217.43C38.11 217.451 38.1184 217.472 38.1334 217.487C38.1484 217.502 38.1688 217.51 38.19 217.51C43.1664 219.703 47.5376 223.069 50.93 227.32C50.9673 227.367 51.0177 227.401 51.0747 227.419C51.1317 227.437 51.1928 227.437 51.25 227.42C51.58 230.75 51.88 234.08 52.12 237.42C52.12 237.47 52.2 237.47 52.2 237.42C51.94 234.067 51.6667 230.68 51.38 227.26Z" fill="white"/>
<path d="M39.13 175.48C36.37 173.762 33.217 172.778 29.97 172.62C29.9541 172.62 29.9388 172.626 29.9276 172.638C29.9163 172.649 29.91 172.664 29.91 172.68C29.91 172.696 29.9163 172.711 29.9276 172.722C29.9388 172.734 29.9541 172.74 29.97 172.74C33.1093 173.335 36.1558 174.344 39.03 175.74C39.15 175.77 39.24 175.56 39.13 175.48Z" fill="white"/>
<path d="M40.98 216.45C38.8587 215.232 36.5229 214.435 34.1 214.1C34.02 214.1 34.01 214.21 34.1 214.23C36.466 214.705 38.7545 215.506 40.9 216.61C40.99 216.66 41.07 216.5 40.98 216.45Z" fill="white"/>
<path d="M94.28 189.44C87.8329 193.897 81.9117 199.07 76.63 204.86C71.183 210.991 66.9815 218.124 64.26 225.86C58.4679 241.978 55.3533 258.936 55.04 276.06C54.8457 285.543 55.7552 295.017 57.75 304.29C57.7662 304.357 57.8076 304.416 57.8658 304.454C57.924 304.491 57.9945 304.505 58.0626 304.492C58.1307 304.479 58.1913 304.441 58.2317 304.385C58.2722 304.328 58.2895 304.259 58.28 304.19C55.7977 287.826 55.8922 271.175 58.56 254.84C61.18 238.84 65.29 221.42 75.47 208.41C81.01 201.32 87.92 195.75 94.75 189.99C95.11 189.67 94.65 189.18 94.28 189.44Z" fill="#EBEBEB"/>
<path d="M57.28 264.52C60.9498 258.584 65.2625 253.071 70.14 248.08C77.77 240.45 84.19 235.03 85.19 229.99C86.19 224.95 77.55 221.23 77.55 221.23C77.55 221.23 88.1 223.13 90.99 218.7C93.88 214.27 95.27 188.61 95.27 188.61C95.27 188.61 76.07 202.32 67.12 221.54C58.17 240.76 57.28 264.52 57.28 264.52Z" fill="#EBEBEB"/>
<path d="M88.38 212.68C87.1157 212.492 85.8341 212.448 84.56 212.55C84.41 212.55 84.42 212.81 84.56 212.82C85.82 212.82 87.09 212.76 88.35 212.82C88.3644 212.816 88.3775 212.809 88.3878 212.798C88.3981 212.787 88.4052 212.774 88.4083 212.759C88.4114 212.745 88.4104 212.73 88.4054 212.716C88.4004 212.702 88.3916 212.689 88.38 212.68V212.68Z" fill="white"/>
<path d="M74.59 237.57C72.5625 237.611 70.5583 238.011 68.67 238.75C68.67 238.75 68.67 238.85 68.67 238.84C70.67 238.37 72.6 238.18 74.58 237.84C74.6058 237.829 74.628 237.81 74.6439 237.787C74.6597 237.764 74.6687 237.736 74.6697 237.708C74.6708 237.68 74.6639 237.652 74.6498 237.628C74.6357 237.603 74.6149 237.583 74.59 237.57V237.57Z" fill="white"/>
<path d="M70.45 228.97C69.6082 228.963 68.7678 229.037 67.94 229.19C67.9247 229.196 67.9115 229.206 67.9022 229.219C67.8928 229.233 67.8878 229.249 67.8878 229.265C67.8878 229.281 67.8928 229.297 67.9022 229.311C67.9115 229.324 67.9247 229.334 67.94 229.34C68.7782 229.388 69.6192 229.352 70.45 229.23C70.4845 229.23 70.5175 229.216 70.5419 229.192C70.5663 229.168 70.58 229.134 70.58 229.1C70.58 229.066 70.5663 229.032 70.5419 229.008C70.5175 228.984 70.4845 228.97 70.45 228.97V228.97Z" fill="white"/>
<path d="M0.990001 216.66C7.2392 218.779 13.2276 221.6 18.84 225.07C24.6634 228.77 29.7134 233.566 33.71 239.19C42.119 250.895 48.5573 263.897 52.77 277.68C55.1195 285.312 56.5693 293.192 57.09 301.16C57.0791 301.212 57.0508 301.258 57.0098 301.291C56.9688 301.324 56.9177 301.342 56.865 301.342C56.8123 301.342 56.7612 301.324 56.7202 301.291C56.6793 301.258 56.6509 301.212 56.64 301.16C54.8748 287.344 50.9539 273.891 45.02 261.29C39.19 248.94 31.84 235.8 20.6 227.62C14.48 223.17 7.6 220.25 0.740001 217.17C0.380001 217.05 0.630001 216.54 0.990001 216.66Z" fill="#EBEBEB"/>
<path d="M48.29 268.87C43.9455 264.917 39.1803 261.453 34.08 258.54C26.14 254.13 19.69 251.23 17.72 247.38C15.75 243.53 21.88 238.53 21.88 238.53C21.88 238.53 13.78 242.53 10.42 239.58C7.06 236.63 0 216.23 0 216.23C0 216.23 18.71 222.88 30.38 236.37C42.05 249.86 48.29 268.87 48.29 268.87Z" fill="#EBEBEB"/>
<path d="M32.76 250.09C30.9205 249.962 29.0734 250.189 27.32 250.76C27.32 250.76 27.32 250.85 27.32 250.84C29.1089 250.533 30.9162 250.346 32.73 250.28C32.86 250.28 32.89 250.1 32.76 250.09Z" fill="white"/>
<path d="M16.44 228.69C15.6009 228.621 14.7563 228.669 13.93 228.83C13.84 228.83 13.87 228.99 13.93 228.98C14.76 228.89 15.57 228.92 16.39 228.9C16.4155 228.901 16.4405 228.893 16.4608 228.878C16.4811 228.862 16.4955 228.84 16.5014 228.816C16.5073 228.791 16.5044 228.765 16.4932 228.742C16.482 228.719 16.4632 228.701 16.44 228.69V228.69Z" fill="white"/>
<path d="M72.42 326.95H30.19L36.21 282.84L37.75 271.53H64.86L66.4 282.84L72.42 326.95Z" fill="#DBDBDB"/>
<path d="M66.4 282.84H36.21L37.75 271.53H64.86L66.4 282.84Z" fill="#C7C7C7"/>
<path d="M68.73 267.61H33.87V277.19H68.73V267.61Z" fill="#DBDBDB"/>
<path d="M3.34 326.95L79.35 326.71L155.36 326.62L307.38 326.45L459.4 326.62L535.41 326.71L611.42 326.95L535.41 327.2L459.4 327.28L307.38 327.45L155.36 327.28L79.35 327.19L3.34 326.95Z" fill="#263238"/>
<path d="M309.38 401.48C467.742 401.48 596.12 387.413 596.12 370.06C596.12 352.707 467.742 338.64 309.38 338.64C151.018 338.64 22.64 352.707 22.64 370.06C22.64 387.413 151.018 401.48 309.38 401.48Z" fill="#EBEBEB"/>
<path d="M242.63 364.86C240.3 365.65 173.49 365.86 170.93 364.28C169.93 363.68 169.36 353.95 168.93 342.17C168.84 339.63 168.77 337 168.71 334.34L163.38 298.7L208.05 298.41L212.26 334.06L212.09 341.9C212.09 341.9 237.71 353.25 240.33 355.31C242.95 357.37 244.96 364.07 242.63 364.86Z" fill="#EB9481"/>
<path d="M242.63 364.86C240.3 365.65 173.49 365.86 170.93 364.28C169.75 363.54 169.11 349.33 168.75 334.34L212.21 334.06L212.04 341.9C212.04 341.9 237.66 353.25 240.28 355.31C242.9 357.37 244.96 364.07 242.63 364.86Z" fill="white"/>
<path d="M242.63 364.86C240.3 365.65 173.49 365.86 170.93 364.28C169.93 363.68 169.36 353.95 168.93 342.17L212 341.9C212 341.9 237.62 353.25 240.24 355.31C242.86 357.37 244.96 364.07 242.63 364.86Z" fill="#A6A6A6"/>
<path d="M241.66 362.19C230.46 361.95 185.26 362.06 174.17 362.68C174.08 362.68 174.08 362.74 174.17 362.75C185.27 363.22 230.47 362.75 241.66 362.37C241.9 362.36 241.9 362.19 241.66 362.19Z" fill="#263238"/>
<path d="M235.97 352.92C234.725 352.892 233.487 353.123 232.335 353.598C231.184 354.073 230.143 354.782 229.28 355.68C227.707 357.283 226.817 359.434 226.8 361.68C226.8 361.75 226.92 361.75 226.93 361.68C227.302 359.468 228.379 357.435 230.001 355.885C231.623 354.335 233.703 353.351 235.93 353.08C235.951 353.085 235.974 353.082 235.992 353.071C236.011 353.06 236.025 353.041 236.03 353.02C236.035 352.999 236.032 352.976 236.021 352.958C236.009 352.939 235.991 352.925 235.97 352.92V352.92Z" fill="#263238"/>
<path d="M216.38 343C211.9 342.95 206.71 344.55 203.93 348.23C203.83 348.37 204.03 348.52 204.16 348.45C208.074 346.384 212.197 344.741 216.46 343.55C216.526 343.532 216.583 343.49 216.62 343.433C216.658 343.376 216.673 343.307 216.663 343.24C216.653 343.172 216.619 343.11 216.567 343.066C216.515 343.022 216.448 342.999 216.38 343V343Z" fill="#263238"/>
<path d="M219.86 344.33C215.37 344.33 210.18 345.89 207.41 349.56C207.3 349.71 207.5 349.86 207.64 349.79C211.548 347.717 215.669 346.07 219.93 344.88C219.995 344.862 220.051 344.821 220.089 344.765C220.126 344.709 220.142 344.642 220.134 344.575C220.125 344.508 220.093 344.446 220.043 344.401C219.992 344.356 219.927 344.331 219.86 344.33V344.33Z" fill="#263238"/>
<path d="M223.32 345.67C218.84 345.67 213.65 347.22 210.87 350.9C210.77 351.04 210.97 351.19 211.1 351.12C215.014 349.054 219.137 347.411 223.4 346.22C223.466 346.202 223.523 346.16 223.56 346.103C223.598 346.046 223.613 345.977 223.603 345.91C223.593 345.842 223.559 345.78 223.507 345.736C223.455 345.692 223.388 345.669 223.32 345.67Z" fill="#263238"/>
<path d="M226.79 347.01C222.3 346.96 217.11 348.56 214.34 352.24C214.23 352.38 214.44 352.53 214.57 352.46C218.483 350.392 222.607 348.75 226.87 347.56C226.936 347.542 226.993 347.5 227.03 347.443C227.068 347.386 227.083 347.317 227.073 347.25C227.063 347.182 227.029 347.12 226.977 347.076C226.925 347.032 226.858 347.009 226.79 347.01V347.01Z" fill="#263238"/>
<path d="M176.99 352.03C171.99 352.03 171.99 359.88 176.99 359.85C181.99 359.82 182.03 352 176.99 352.03Z" fill="#263238"/>
<path d="M221.19 331.02C218.92 329.14 216.06 331.02 214.67 332.95C212.356 336.361 210.977 340.319 210.67 344.43C210.67 344.52 210.74 344.56 210.81 344.56C210.828 344.645 210.866 344.724 210.92 344.791C210.975 344.858 211.045 344.911 211.124 344.945C211.204 344.979 211.29 344.994 211.376 344.988C211.463 344.982 211.546 344.955 211.62 344.91C214.8 342.7 218.48 340.72 220.89 337.59C222.26 335.77 223.38 332.77 221.19 331.02ZM215.73 340.56C214.19 341.69 212.6 342.74 211.1 343.93C211.9 341.69 212.59 339.43 213.61 337.27C214.081 336.234 214.623 335.232 215.23 334.27C216.23 332.78 220.59 329.02 221.05 333.89C221.31 336.56 217.56 339.22 215.73 340.56Z" fill="#263238"/>
<path d="M199.51 346.13C203.41 346.71 207.44 345.59 211.27 344.98C211.353 344.958 211.43 344.917 211.495 344.861C211.559 344.804 211.609 344.733 211.642 344.653C211.674 344.573 211.687 344.487 211.679 344.402C211.672 344.316 211.645 344.233 211.6 344.16C211.615 344.149 211.626 344.134 211.634 344.118C211.643 344.101 211.647 344.083 211.647 344.065C211.647 344.047 211.643 344.029 211.634 344.012C211.626 343.996 211.615 343.981 211.6 343.97C208.523 341.226 204.777 339.339 200.74 338.5C198.38 338.05 195.04 338.7 194.74 341.63C194.38 344.39 197.23 345.77 199.51 346.13ZM196.79 343.59C193.79 339.75 199.52 339.42 201.24 339.82C202.356 340.099 203.452 340.453 204.52 340.88C206.707 341.787 208.847 342.805 210.93 343.93C209.03 344.12 207.16 344.46 205.27 344.72C203.01 345.02 198.47 345.7 196.79 343.59V343.59Z" fill="#263238"/>
<path d="M97.7 133.97C97.7 133.97 149.57 222.21 150.96 228.41C153.09 237.93 164.38 331.94 164.38 331.94L218.38 330.94C218.38 330.94 209.08 248.05 200.27 220.74C193.93 201.07 148.15 135.83 148.15 135.83L97.7 133.97Z" fill="#37474F"/>
<path d="M213.47 322.7C205.72 322.64 178.25 322.33 167.93 323.29C167.85 323.29 167.86 323.43 167.93 323.44C171.48 323.95 205.71 323.16 213.46 322.91C213.476 322.916 213.494 322.918 213.511 322.916C213.528 322.914 213.544 322.908 213.558 322.898C213.573 322.889 213.585 322.876 213.593 322.861C213.602 322.846 213.606 322.829 213.607 322.812C213.608 322.795 213.605 322.777 213.598 322.762C213.591 322.746 213.58 322.732 213.567 322.721C213.553 322.71 213.538 322.703 213.521 322.699C213.504 322.695 213.487 322.696 213.47 322.7V322.7Z" fill="#263238"/>
<path d="M106.55 142.07C109.95 147.4 113.55 152.62 117.01 157.91C120.47 163.2 123.95 168.49 127.38 173.77C134.22 184.437 140.887 195.173 147.38 205.98C150.549 210.989 153.26 216.274 155.48 221.77C157.506 227.267 159.029 232.937 160.03 238.71C161.09 244.5 161.79 250.35 162.44 256.2C163.107 262.42 163.803 268.643 164.53 274.87C165.95 287.61 167.373 300.35 168.8 313.09C168.97 314.65 169.14 316.21 169.3 317.78C169.3 318.01 168.91 318.05 168.88 317.78C167.29 305.13 165.97 292.43 164.53 279.78C163.81 273.467 163.093 267.157 162.38 260.85C161.71 254.98 161.07 249.1 160.16 243.27C159.325 237.515 158.055 231.832 156.36 226.27C154.493 220.51 151.991 214.976 148.9 209.77C142.65 198.98 136.03 188.38 129.41 177.77C122.79 167.16 115.99 156.46 109.01 145.98C108.15 144.69 107.28 143.4 106.38 142.13C106.31 142.06 106.49 141.97 106.55 142.07Z" fill="#263238"/>
<path d="M114.7 370.06C112.24 369.91 48.7 344.17 46.94 341.73C46.8616 341.586 46.8269 341.423 46.84 341.26C46.84 339.07 51.25 331.43 54.93 321.39C55.16 320.75 56.8 317.77 59.07 313.76C65.38 302.77 76.38 283.84 76.38 283.84L117.91 300.34L98.03 330.09L94.94 337.29C94.94 337.29 114.43 357.44 116.07 360.29C117.71 363.14 117.15 370.2 114.7 370.06Z" fill="#EB9481"/>
<path d="M114.7 370.06C112.24 369.91 48.7 344.17 46.94 341.73C46.8616 341.586 46.8269 341.423 46.84 341.26C46.84 339.07 51.25 331.43 54.93 321.39C55.16 320.75 56.8 317.77 59.07 313.76L98.07 330.09L94.98 337.29C94.98 337.29 114.47 357.44 116.11 360.29C117.75 363.14 117.15 370.2 114.7 370.06Z" fill="white"/>
<path d="M114.7 370.06C112.24 369.91 48.7 344.17 46.94 341.73C46.26 340.8 49.1 332.13 54.94 321.39L94.94 337.3C94.94 337.3 114.43 357.43 116.08 360.3C117.73 363.17 117.15 370.2 114.7 370.06Z" fill="#A6A6A6"/>
<path d="M114.8 367.22C104.51 362.8 62.57 345.94 52.06 342.36C51.97 342.36 51.95 342.36 52.06 342.42C62.17 347.02 104.24 363.54 114.76 367.42C114.96 367.47 115.02 367.31 114.8 367.22Z" fill="#263238"/>
<path d="M113 356.49C111.859 355.989 110.626 355.73 109.38 355.73C108.134 355.73 106.901 355.989 105.76 356.49C103.708 357.388 102.082 359.043 101.22 361.11C101.22 361.17 101.31 361.22 101.34 361.16C102.519 359.243 104.287 357.759 106.381 356.931C108.474 356.104 110.779 355.977 112.95 356.57C112.967 356.565 112.981 356.555 112.991 356.54C113 356.525 113.003 356.507 113 356.49V356.49Z" fill="#263238"/>
<path d="M98.57 339.95C94.44 338.22 89.02 337.76 85.07 340.13C84.92 340.22 85.07 340.43 85.2 340.42C89.6033 339.973 94.0417 339.997 98.44 340.49C98.5077 340.497 98.5757 340.48 98.6314 340.441C98.6871 340.401 98.7266 340.343 98.7425 340.277C98.7584 340.211 98.7497 340.141 98.718 340.081C98.6862 340.021 98.6336 339.974 98.57 339.95Z" fill="#263238"/>
<path d="M101.28 342.49C97.15 340.76 91.73 340.3 87.78 342.67C87.63 342.76 87.78 342.97 87.91 342.96C92.3131 342.508 96.752 342.532 101.15 343.03C101.218 343.037 101.286 343.02 101.341 342.981C101.397 342.941 101.437 342.883 101.453 342.817C101.468 342.751 101.46 342.681 101.428 342.621C101.396 342.561 101.344 342.514 101.28 342.49Z" fill="#263238"/>
<path d="M104 345.03C99.86 343.3 94.44 342.84 90.5 345.21C90.34 345.3 90.5 345.51 90.62 345.5C95.0231 345.048 99.4619 345.072 103.86 345.57C103.929 345.582 104 345.567 104.059 345.529C104.117 345.491 104.16 345.432 104.177 345.364C104.195 345.296 104.186 345.224 104.154 345.163C104.121 345.101 104.066 345.053 104 345.03V345.03Z" fill="#263238"/>
<path d="M106.71 347.57C102.57 345.84 97.16 345.38 93.21 347.74C93.05 347.84 93.21 348.05 93.33 348.04C97.7331 347.588 102.172 347.612 106.57 348.11C106.639 348.122 106.71 348.107 106.769 348.069C106.827 348.031 106.87 347.972 106.887 347.904C106.905 347.836 106.896 347.764 106.864 347.703C106.831 347.641 106.776 347.593 106.71 347.57V347.57Z" fill="#263238"/>
<path d="M58.66 333.54C53.99 331.68 51.09 338.95 55.78 340.81C60.47 342.67 63.38 335.4 58.66 333.54Z" fill="#263238"/>
<path d="M107.52 330.65C106.11 328.06 102.78 328.7 100.75 329.99C97.3304 332.281 94.5718 335.429 92.75 339.12C92.742 339.136 92.7377 339.154 92.7376 339.172C92.7374 339.19 92.7413 339.208 92.749 339.224C92.7567 339.241 92.768 339.255 92.782 339.266C92.796 339.278 92.8124 339.286 92.83 339.29C92.83 339.62 93.05 340.01 93.44 339.93C97.23 339.06 101.38 338.61 104.78 336.61C106.73 335.45 108.85 333.1 107.52 330.65ZM98.87 337.44C97.02 337.91 95.16 338.29 93.33 338.83C94.8437 337.006 96.4491 335.261 98.14 333.6C98.9724 332.807 99.8578 332.072 100.79 331.4C102.24 330.4 107.72 328.55 106.32 333.24C105.55 335.83 101.08 336.88 98.87 337.44V337.44Z" fill="#263238"/>
<path d="M81.75 336.52C85.15 338.52 89.3 338.99 93.08 339.87C93.47 339.96 93.73 339.57 93.7 339.23C93.7188 339.228 93.7367 339.221 93.752 339.21C93.7674 339.199 93.7797 339.185 93.7877 339.167C93.7958 339.15 93.7993 339.132 93.7979 339.113C93.7966 339.094 93.7904 339.076 93.78 339.06C91.961 335.362 89.2023 332.206 85.78 329.91C83.78 328.61 80.43 327.96 79.01 330.54C77.59 333.12 79.76 335.35 81.75 336.52ZM80.19 333.14C78.8 328.45 84.27 330.31 85.72 331.32C86.6511 331.993 87.5333 332.732 88.36 333.53C90.0477 335.194 91.6497 336.943 93.16 338.77C91.33 338.23 89.47 337.84 87.62 337.37C85.38 336.77 80.95 335.77 80.19 333.14Z" fill="#263238"/>
<path d="M101.26 328.43L54.77 309.66C54.77 309.66 112.41 224.91 112.83 218.6C113.21 213.02 87.89 164.4 86.9 150.23C85.82 134.93 93.18 123.1 101.28 115.75L149.23 136.14C149.23 136.14 144.17 144.23 136.23 148.74C136.23 148.74 160.82 204.94 159.42 222.22C158.02 239.5 101.26 328.43 101.26 328.43Z" fill="#37474F"/>
<path d="M103.32 319.59C96.6 316.7 98.57 317.43 91.81 314.59C88.51 313.21 66.81 304.18 63.47 303.43C63.4 303.43 63.35 303.53 63.42 303.57C66.31 305.34 88.19 313.99 91.52 315.31C98.33 317.99 96.4 317.15 103.24 319.75C103.25 319.764 103.264 319.774 103.279 319.781C103.295 319.788 103.312 319.791 103.329 319.79C103.346 319.788 103.362 319.782 103.376 319.773C103.39 319.763 103.402 319.75 103.409 319.735C103.417 319.719 103.421 319.703 103.42 319.686C103.419 319.668 103.414 319.652 103.405 319.637C103.396 319.623 103.384 319.611 103.369 319.603C103.354 319.594 103.337 319.59 103.32 319.59V319.59Z" fill="#263238"/>
<path d="M144.09 147.71C139.098 148.874 134.214 150.459 129.49 152.45C129.471 152.457 129.453 152.467 129.438 152.48C129.423 152.494 129.411 152.51 129.402 152.528C129.393 152.546 129.388 152.566 129.387 152.586C129.386 152.606 129.388 152.626 129.395 152.645C129.402 152.664 129.412 152.682 129.425 152.697C129.439 152.712 129.455 152.724 129.473 152.733C129.491 152.742 129.511 152.747 129.531 152.748C129.551 152.749 129.571 152.747 129.59 152.74C134.49 151.31 139.47 149.97 144.29 148.28C144.66 148.15 144.47 147.63 144.09 147.71Z" fill="#263238"/>
<path d="M138.38 145.77C137.914 146.599 137.503 147.457 137.15 148.34C136.805 149.01 136.591 149.74 136.52 150.49C136.52 150.64 136.72 150.67 136.81 150.58C137.312 149.98 137.717 149.305 138.01 148.58C138.42 147.79 138.84 147.01 139.23 146.2C139.5 145.61 138.69 145.23 138.38 145.77Z" fill="#263238"/>
<path d="M138.98 141.23C139.28 140.49 139.57 139.76 139.88 139.02C140.19 138.28 140.58 137.52 140.88 136.74C140.88 136.62 141.12 136.74 141.07 136.83C140.77 137.57 140.58 138.35 140.35 139.11C140.12 139.87 139.86 140.63 139.61 141.39C139.14 142.8 138.61 144.2 137.96 145.57C138.747 145.609 139.533 145.473 140.26 145.17C141.003 144.695 141.574 143.994 141.89 143.17C142.31 142.35 142.7 141.51 143.13 140.69C143.659 139.803 144.105 138.869 144.46 137.9C144.46 137.78 144.7 137.9 144.65 137.99C143.998 140.04 143.144 142.019 142.1 143.9C141.65 144.63 141.3 145.4 140.48 145.68C139.592 145.928 138.663 145.993 137.75 145.87C137.63 145.87 137.49 145.87 137.53 145.69C137.939 144.18 138.423 142.692 138.98 141.23V141.23Z" fill="#263238"/>
<path d="M136.94 150.57C138.65 154.18 140.15 157.78 141.74 161.38C143.33 164.98 144.74 168.46 146.17 172.04C149.03 179.26 151.59 186.62 153.84 194.04C154.95 197.72 155.98 201.43 156.9 205.17C157.913 208.898 158.655 212.695 159.12 216.53C159.521 220.359 159.182 224.229 158.12 227.93C157.017 231.588 155.602 235.144 153.89 238.56C152.84 240.72 152.49 240.43 152.99 239.34C154.42 236.24 158.17 226.85 157.9 218.96C157.681 215.183 157.099 211.435 156.16 207.77C155.287 203.99 154.303 200.24 153.21 196.52C151.08 189.18 148.55 181.99 145.95 174.81C144.49 170.81 142.95 166.81 141.45 162.81C139.95 158.81 138.45 155.13 136.77 150.71C136.72 150.53 136.89 150.46 136.94 150.57Z" fill="#263238"/>
<path d="M101.65 138.64C102.48 138.33 103.65 138.84 104.49 138.98C105.578 139.165 106.677 139.275 107.78 139.31C108.871 139.348 109.964 139.312 111.05 139.2C112.144 139.172 113.216 138.888 114.18 138.37C115.762 137.218 117.118 135.784 118.18 134.14C119.446 132.46 120.491 130.625 121.29 128.68C121.29 128.56 121.5 128.68 121.46 128.76C121.11 129.87 120.85 130.99 120.46 132.08C120.029 133.104 119.514 134.091 118.92 135.03C117.957 136.92 116.533 138.536 114.78 139.73C112.85 140.83 110.37 140.73 108.22 140.64C106.973 140.567 105.733 140.404 104.51 140.15C103.63 139.96 102.15 139.82 101.59 139.05C101.564 139.021 101.544 138.986 101.533 138.948C101.521 138.91 101.518 138.87 101.524 138.831C101.53 138.792 101.544 138.755 101.566 138.722C101.588 138.689 101.616 138.661 101.65 138.64V138.64Z" fill="#263238"/>
<path d="M68.04 300.77C75.68 289.197 83.18 277.53 90.54 265.77C97.9 254.01 105.16 242.16 112.32 230.22C114.03 227.37 116 224.53 117.1 221.37C118.3 217.94 117.62 214.61 116.54 211.25C114.501 205.12 112.117 199.111 109.4 193.25C106.72 187.34 103.83 181.53 100.99 175.7C98.15 169.87 95.18 164.11 92.99 158.03C90.99 152.22 90.18 146.2 91.74 140.18C93.3 134.16 96.66 128.84 100.17 123.83C101.09 122.51 102.04 121.2 102.97 119.83C103.04 119.73 103.19 119.83 103.12 119.95C99.25 125.17 95.48 130.7 93.21 136.83C92.0498 139.852 91.4009 143.045 91.29 146.28C91.2711 149.563 91.7809 152.829 92.8 155.95C94.68 162.03 97.65 167.78 100.42 173.5C103.19 179.22 106.15 185.14 108.88 191.03C111.696 196.958 114.2 203.03 116.38 209.22C117.31 211.97 118.38 214.85 118.3 217.8C118.23 221.03 116.69 223.94 115.09 226.66C108.09 238.51 100.92 250.22 93.62 261.86C86.32 273.5 78.81 285.14 71.21 296.66L68.33 301.01C68.18 301.19 67.92 300.98 68.04 300.77Z" fill="#263238"/>
<path d="M151.89 82.24C156.22 91.74 178.09 104.83 188.33 106.24C195.69 107.24 218.07 107.6 225.74 106.43C234.74 105.05 227.86 80.8 222.55 81.43C207.95 83.13 195.55 85.03 191.65 85.03C186.89 85.03 161.14 76.77 158.04 75.6C150.44 72.77 149.44 76.85 151.89 82.24Z" fill="#EB9481"/>
<path d="M152.03 84.77C157.51 92.88 175.72 106.14 175.72 106.14L178.25 100.54L186.62 82.02C186.62 82.02 169.89 76.77 158.88 74.37C157.584 74.0751 156.267 73.8878 154.94 73.81C147.91 73.43 147.3 77.77 152.03 84.77Z" fill="#f97316"/>
<path d="M152.03 84.77C157.51 92.88 175.72 106.14 175.72 106.14L178.25 100.54C171.46 92.65 160.97 80.7 154.94 73.83C147.91 73.43 147.3 77.77 152.03 84.77Z" fill="#263238"/>
<path d="M172.44 102.38C173.83 98.97 180.01 85.24 181.55 82.38C181.65 82.18 181.81 82.2 181.72 82.38C179.039 89.2079 175.988 95.8845 172.58 102.38C172.54 102.5 172.38 102.46 172.44 102.38Z" fill="#263238"/>
<path d="M219.87 81.68C228.75 80.52 239.74 78.53 249.05 82.48C250.096 82.8902 250.973 83.6405 251.54 84.61C255.74 86.31 256.2 88.8 256.2 88.8C259.63 91.58 259.75 94.2 259.75 94.2C259.75 94.2 264.67 96.2 263.92 99.42C263.1 102.98 256.36 99.42 251.46 99.71C240.21 100.41 224.46 104.54 221.21 105.06L219.87 81.68Z" fill="#EB9481"/>
<path d="M239.16 92.16C242.449 91.935 245.751 91.935 249.04 92.16C252.622 92.6094 256.166 93.3281 259.64 94.31C259.663 94.3179 259.687 94.3166 259.709 94.3063C259.73 94.296 259.747 94.2775 259.755 94.255C259.763 94.2325 259.762 94.2077 259.751 94.1861C259.741 94.1645 259.723 94.148 259.7 94.14C253.173 91.5791 246.068 90.8597 239.16 92.06C239 92.04 239 92.17 239.16 92.16Z" fill="#263238"/>
<path d="M237.07 81.77C242.56 82.05 245.99 82.93 251.51 84.59V84.53C245.43 81.99 242.94 81.75 237.04 81.53C236.85 81.61 236.86 81.77 237.07 81.77Z" fill="#263238"/>
<path d="M237.96 101.41C236.53 102.08 236.88 102.83 239.61 103.46C242.34 104.09 253.69 104.28 253.29 108.24C252.89 112.2 236.88 111.7 232.41 110.3C227.94 108.9 221.21 105.06 221.21 105.06C224.38 104.53 231.82 102.52 237.96 101.41Z" fill="#EB9481"/>
<path d="M163.78 97.38C163.71 99.09 163.55 100.83 163.31 102.56C163.31 102.49 163.31 102.43 163.38 102.37C163.71 101.47 164.04 100.55 164.44 99.68C164.44 99.68 164.54 99.68 164.53 99.68C164.338 100.633 164.05 101.565 163.67 102.46C163.49 102.89 163.32 103.31 163.13 103.73C163.01 104.5 162.87 105.26 162.72 106.02C162.42 107.45 161.07 113.53 160.72 114.56C160.66 114.77 160.4 114.72 160.42 114.48C160.49 113.36 161.62 107.03 161.85 105.59C162.297 102.81 162.894 100.056 163.64 97.34C163.69 97.29 163.79 97.33 163.78 97.38Z" fill="#263238"/>
<path d="M153.38 142.85C150.71 144.22 147.27 146.35 131.77 143.3C130.77 143.1 129.83 142.86 128.85 142.57C114.32 138.21 96.85 121.12 95.9 119.91C95.9 119.91 118.99 82.48 148.52 70.71C152.17 69.26 158.21 72.06 161.52 75.55C162.71 76.8 165.3 85.99 164.31 93.43C163.32 100.87 156.04 141.48 153.38 142.85Z" fill="#f97316"/>
<path d="M151.3 93.09C151.412 94.6717 151.19 96.2592 150.65 97.75C150.523 96.1678 150.745 94.5771 151.3 93.09V93.09Z" fill="white"/>
<path d="M141.23 118.58C141.294 119.367 141.267 120.159 141.15 120.94C141.054 121.727 140.862 122.499 140.58 123.24C140.511 122.45 140.538 121.654 140.66 120.87C140.762 120.087 140.953 119.319 141.23 118.58V118.58Z" fill="white"/>
<path d="M124.12 99.31C124.233 100.895 124.011 102.486 123.47 103.98C123.344 102.395 123.566 100.801 124.12 99.31V99.31Z" fill="white"/>
<path d="M157.89 117.28C157.954 118.07 157.927 118.866 157.81 119.65C157.714 120.437 157.522 121.209 157.24 121.95C157.171 121.16 157.198 120.364 157.32 119.58C157.421 118.794 157.612 118.022 157.89 117.28V117.28Z" fill="white"/>
<path d="M135.92 96.01C136.707 95.9431 137.499 95.9666 138.28 96.08C139.067 96.1798 139.84 96.3745 140.58 96.66C138.998 96.7736 137.41 96.5521 135.92 96.01V96.01Z" fill="white"/>
<path d="M116.5 114.42C118.082 114.308 119.669 114.53 121.16 115.07C119.578 115.197 117.987 114.975 116.5 114.42V114.42Z" fill="white"/>
<path d="M139.38 134.35C140.962 134.236 142.55 134.458 144.04 135C142.458 135.125 140.868 134.903 139.38 134.35V134.35Z" fill="white"/>
<path d="M110.51 127.11C112.092 126.998 113.679 127.22 115.17 127.76C113.588 127.885 111.998 127.663 110.51 127.11V127.11Z" fill="white"/>
<path d="M151.15 75.17C152.732 75.0585 154.319 75.2799 155.81 75.82C154.228 75.9315 152.641 75.7101 151.15 75.17V75.17Z" fill="white"/>
<path d="M145.5 81.55C144.994 82.1577 144.417 82.7017 143.78 83.17C143.16 83.6492 142.49 84.0583 141.78 84.39C142.282 83.7862 142.853 83.2426 143.48 82.77C144.106 82.289 144.783 81.8798 145.5 81.55V81.55Z" fill="white"/>
<path d="M114.71 99.68C114.198 100.282 113.618 100.823 112.98 101.29C112.367 101.778 111.695 102.188 110.98 102.51C111.494 101.91 112.075 101.37 112.71 100.9C113.325 100.414 113.996 100.004 114.71 99.68V99.68Z" fill="white"/>
<path d="M153.16 107.86C152.648 108.466 152.068 109.009 151.43 109.48C150.815 109.966 150.144 110.376 149.43 110.7C149.942 110.094 150.522 109.551 151.16 109.08C151.778 108.599 152.449 108.189 153.16 107.86Z" fill="white"/>
<path d="M128.26 123.54C127.748 124.146 127.168 124.689 126.53 125.16C125.914 125.645 125.243 126.054 124.53 126.38C125.042 125.774 125.622 125.231 126.26 124.76C126.878 124.279 127.549 123.869 128.26 123.54Z" fill="white"/>
<path d="M162.7 86.44C162.188 87.0456 161.608 87.5893 160.97 88.06C160.35 88.5392 159.68 88.9483 158.97 89.28C159.482 88.6744 160.062 88.1307 160.7 87.66C161.316 87.1753 161.987 86.7657 162.7 86.44V86.44Z" fill="white"/>
<path d="M162.18 104.61C161.574 104.098 161.031 103.518 160.56 102.88C160.073 102.266 159.664 101.594 159.34 100.88C159.948 101.386 160.492 101.963 160.96 102.6C161.438 103.224 161.847 103.898 162.18 104.61V104.61Z" fill="white"/>
<path d="M106.68 117.13C106.074 116.618 105.531 116.038 105.06 115.4C104.579 114.782 104.169 114.111 103.84 113.4C104.446 113.912 104.989 114.492 105.46 115.13C105.945 115.746 106.354 116.417 106.68 117.13V117.13Z" fill="white"/>
<path d="M155.43 132.02C154.822 131.514 154.278 130.937 153.81 130.3C153.331 129.68 152.922 129.01 152.59 128.3C153.196 128.812 153.739 129.392 154.21 130.03C154.693 130.644 155.102 131.312 155.43 132.02Z" fill="white"/>
<path d="M131 89.57C130.395 89.062 129.851 88.4847 129.38 87.85C128.903 87.229 128.494 86.5585 128.16 85.85C128.768 86.3555 129.312 86.9331 129.78 87.57C130.257 88.191 130.666 88.8616 131 89.57V89.57Z" fill="white"/>
<path d="M131.43 140.5C130.824 139.988 130.281 139.408 129.81 138.77C129.33 138.151 128.921 137.48 128.59 136.77C129.198 137.276 129.742 137.853 130.21 138.49C130.691 139.112 131.1 139.786 131.43 140.5V140.5Z" fill="white"/>
<path d="M135.58 110.46C134.98 109.946 134.44 109.365 133.97 108.73C133.482 108.117 133.072 107.445 132.75 106.73C133.352 107.242 133.893 107.822 134.36 108.46C134.846 109.075 135.256 109.746 135.58 110.46V110.46Z" fill="white"/>
<path d="M156.11 85.52C152.34 84.82 148.8 77.03 148.35 71.79C148.35 71.43 150.11 68.58 152.12 65.01C153.34 62.84 154.63 60.39 155.66 58.07C155.87 57.6 157.1 59.19 157.1 59.19L159.78 61.19L168.63 67.98C166.523 70.5089 164.733 73.2862 163.3 76.25C163.159 76.5712 163.051 76.9064 162.98 77.25C162.976 77.3066 162.976 77.3634 162.98 77.42C162.43 79.4 159.74 86.19 156.11 85.52Z" fill="#EB9481"/>
<path d="M162.98 77.3C162.976 77.3566 162.976 77.4134 162.98 77.47C162.455 77.3159 161.943 77.1186 161.45 76.88C151.76 72.34 156.03 59.36 156.03 59.36L159.83 61.24L168.68 68.03C166.573 70.5589 164.783 73.3362 163.35 76.3C163.191 76.6192 163.067 76.9544 162.98 77.3V77.3Z" fill="#263238"/>
<path d="M178.8 40.35C178.8 40.35 183.23 43.16 183.25 48.16C183.27 53.16 181.25 58.05 180.83 58.23C180.41 58.41 178.8 40.35 178.8 40.35Z" fill="#263238"/>
<path d="M156.82 42.95C154.16 48.2 154.3 64.75 157.62 69.01C162.44 75.19 171.72 77.32 177.33 71.21C182.76 65.29 182.2 43.73 178.33 39.71C172.7 33.77 160.76 35.18 156.82 42.95Z" fill="#EB9481"/>
<path d="M170.94 56.2C170.94 56.2 170.85 56.26 170.86 56.3C170.92 57.43 170.8 58.73 169.79 59.13C169.79 59.13 169.79 59.2 169.79 59.19C171.04 58.99 171.18 57.26 170.94 56.2Z" fill="#263238"/>
<path d="M169.91 55.05C168.09 54.95 168.03 58.59 169.72 58.68C171.41 58.77 171.43 55.13 169.91 55.05Z" fill="#263238"/>
<path d="M177.11 56.16C177.11 56.16 177.2 56.16 177.2 56.26C177.14 57.39 177.27 58.69 178.29 59.08C178.29 59.08 178.29 59.15 178.29 59.14C177.03 58.95 176.88 57.22 177.11 56.16Z" fill="#263238"/>
<path d="M178.14 55C179.95 54.89 180.04 58.53 178.36 58.63C176.68 58.73 176.62 55.09 178.14 55Z" fill="#263238"/>
<path d="M168.77 52.28C169.248 52.144 169.718 51.9838 170.18 51.8C170.705 51.7049 171.184 51.4375 171.54 51.04C171.626 50.8944 171.663 50.7245 171.643 50.5564C171.623 50.3882 171.548 50.2314 171.43 50.11C171.159 49.9043 170.839 49.7745 170.501 49.7341C170.164 49.6936 169.822 49.744 169.51 49.88C168.835 50.0607 168.251 50.4845 167.87 51.07C167.794 51.2093 167.759 51.3675 167.77 51.5258C167.781 51.6841 167.838 51.8359 167.932 51.9633C168.027 52.0906 168.156 52.1882 168.305 52.2443C168.453 52.3004 168.615 52.3128 168.77 52.28V52.28Z" fill="#263238"/>
<path d="M179.38 53.89C178.894 53.7813 178.413 53.6477 177.94 53.49C177.413 53.4203 176.924 53.1776 176.55 52.8C176.454 52.6609 176.407 52.4934 176.418 52.3246C176.429 52.1557 176.497 51.9955 176.61 51.87C176.868 51.6495 177.18 51.5025 177.515 51.4444C177.849 51.3864 178.193 51.4194 178.51 51.54C179.194 51.6818 179.8 52.0741 180.21 52.64C180.296 52.7739 180.341 52.9299 180.339 53.0889C180.338 53.2479 180.29 53.403 180.202 53.5355C180.114 53.668 179.99 53.772 179.844 53.8349C179.698 53.8979 179.537 53.917 179.38 53.89V53.89Z" fill="#263238"/>
<path d="M168.38 66.89C168.65 67.16 168.91 67.52 169.32 67.56C169.74 67.5598 170.156 67.4712 170.54 67.3C170.54 67.3 170.61 67.3 170.54 67.36C170.376 67.5798 170.156 67.7508 169.902 67.8548C169.648 67.9587 169.371 67.9916 169.1 67.95C168.872 67.8877 168.666 67.7598 168.51 67.582C168.354 67.4042 168.253 67.1845 168.22 66.95C168.212 66.9288 168.213 66.9053 168.222 66.8847C168.232 66.864 168.249 66.848 168.27 66.84C168.291 66.832 168.315 66.8328 168.335 66.8422C168.356 66.8516 168.372 66.8688 168.38 66.89Z" fill="#263238"/>
<path d="M174.92 62.07C174.92 62.07 174.97 63.75 174.92 64.54C173.383 64.3769 171.832 64.4308 170.31 64.7C169.95 64.78 169.99 64.49 170.4 64.3C171.626 63.7398 172.991 63.5587 174.32 63.78C174.4 63.57 174.19 61.18 174.32 61.19C174.925 61.3088 175.51 61.5107 176.06 61.79C176.06 58.27 175.5 54.79 175.55 51.27C175.55 51.15 175.74 51.13 175.76 51.27C176.471 54.9937 176.806 58.7794 176.76 62.57C176.77 63 175.22 62.23 174.92 62.07Z" fill="#263238"/>
<path d="M172.67 63.94C172.271 64.9885 171.532 65.8726 170.57 66.45C169.06 67.06 168.57 65.69 170.09 64.45C170.887 64.0471 171.78 63.8707 172.67 63.94Z" fill="#263238"/>
<path d="M171.1 66.14C170.94 66.27 170.762 66.3746 170.57 66.45C169.18 67.01 168.63 65.9 169.75 64.78C170.51 64.84 171.38 65.12 171.1 66.14Z" fill="#FF99BA"/>
<path d="M156.06 57.1C157.89 57.66 159.99 52.16 160.59 50.1C161.11 48.24 161.71 42.33 161.8 41.92C161.89 41.51 169.8 47.15 174.38 45.81C178.96 44.47 182.07 40.32 182.14 38.39C182.21 36.46 176.48 31.56 171.53 31.31C166.58 31.06 159.87 37.31 159.87 37.31C160.681 36.3902 161.416 35.4071 162.07 34.37C161.99 34.15 158.79 35.43 158.2 37.71C158.2 37.71 158.84 34.84 158.6 34.79C158.36 34.74 155.87 37.19 156.43 39.05C156.43 39.05 153.55 41.54 153.29 44.27C153.03 47 153.91 56.44 156.06 57.1Z" fill="#263238"/>
<path d="M177.66 44.77C176.298 45.5085 174.831 46.0346 173.31 46.33C171.603 46.4823 169.884 46.2074 168.31 45.53C166.724 44.9173 165.251 44.0454 163.95 42.95C162.8 42.01 161.77 40.86 160.54 40.02C160.23 39.8 159.88 40.25 160.07 40.53C162.122 43.4286 165.054 45.5887 168.43 46.69C169.998 47.2013 171.672 47.2968 173.288 46.9673C174.904 46.6378 176.407 45.8944 177.65 44.81C177.65 44.81 177.68 44.77 177.66 44.77Z" fill="#263238"/>
<path d="M157.97 56.61C157.97 56.61 155.13 50.85 152.57 51.78C150.01 52.71 151.57 60.68 154.2 62.14C154.522 62.3484 154.883 62.4897 155.261 62.5552C155.639 62.6208 156.027 62.6093 156.4 62.5216C156.774 62.4338 157.126 62.2715 157.435 62.0444C157.744 61.8173 158.004 61.5301 158.2 61.2L157.97 56.61Z" fill="#EB9481"/>
<path d="M153.08 54.05C153.08 54.05 153.02 54.05 153.08 54.13C154.9 55.21 155.64 57.13 156.08 59.13C155.997 58.9183 155.869 58.7271 155.705 58.5696C155.541 58.4122 155.345 58.2922 155.13 58.218C154.915 58.1438 154.687 58.1172 154.461 58.14C154.234 58.1628 154.016 58.2344 153.82 58.35C153.76 58.35 153.82 58.46 153.82 58.46C154.178 58.4044 154.544 58.4611 154.868 58.6222C155.192 58.7834 155.458 59.0412 155.63 59.36C155.916 59.894 156.144 60.4572 156.31 61.04C156.37 61.23 156.7 61.18 156.67 60.97C157.1 58.48 155.7 54.71 153.08 54.05Z" fill="#263238"/>
<path d="M139.22 82.33C137.22 93.66 149.5 131.83 157.37 138.96C169.08 149.56 190.73 156.53 198.58 158.8C202 159.8 211.46 135.73 208 134.14C200.59 130.77 177.57 123.57 175.38 121.77C173.19 119.97 159.99 100.9 154.11 89.92C146.24 75.14 140.21 76.6 139.22 82.33Z" fill="#EB9481"/>
<path d="M202.17 132.02C202.17 132.02 212.39 134.63 218.98 136.64C222.66 137.77 228.8 140.26 231.13 142.32C234.61 145.41 247.19 160.53 243.59 163.66C240.33 166.5 231.17 152.13 231.17 152.13C231.17 152.13 241.69 165.81 237.17 168.5C232.65 171.19 224.38 153.58 224.38 153.58C224.38 153.58 234.87 167.88 229.74 169.91C225.86 171.44 217.54 155.91 217.54 155.91C217.54 155.91 226.48 168.26 222.54 170.01C218.2 171.95 209.63 158.09 209.63 158.09C198.91 160.86 192.63 157.79 188.5 155.09C187.53 154.43 202.17 132.02 202.17 132.02Z" fill="#EB9481"/>
<path d="M227.83 147.16C229.13 148.72 230.45 150.3 231.6 151.97C232.75 153.64 233.84 155.36 234.83 157.13C236.171 159.419 237.245 161.855 238.03 164.39C236.31 159.99 232.28 153.94 231.13 152.27C229.98 150.6 228.91 148.87 227.77 147.2C227.74 147.16 227.8 147.12 227.83 147.16Z" fill="#263238"/>
<path d="M221.72 151.21C223.94 152.97 228.59 159.51 230.38 163.9C230.46 164.08 230.38 164.07 230.25 163.9C228.85 161.73 223.17 153.33 221.67 151.24C221.64 151.21 221.69 151.18 221.72 151.21Z" fill="#263238"/>
<path d="M215.85 153.77C218.608 156.663 220.788 160.058 222.27 163.77C222.34 163.95 222.2 163.92 222.09 163.77C220.02 160.4 218.42 157.77 215.74 153.86C215.7 153.77 215.79 153.68 215.85 153.77Z" fill="#263238"/>
<path d="M150.38 83.16C141.25 70.25 135.79 75.03 137.62 89.05C139.34 102.16 143.93 117.78 143.93 117.78L166.93 106.62C166.93 106.62 156.19 91.43 150.38 83.16Z" fill="#f97316"/>
<path d="M155.93 88.24C156.233 88.9692 156.451 89.7309 156.58 90.51C156.72 91.2917 156.771 92.0869 156.73 92.88C156.43 92.147 156.215 91.382 156.09 90.6C155.941 89.8227 155.888 89.0302 155.93 88.24V88.24Z" fill="white"/>
<path d="M142.3 96.09C143.768 95.493 145.347 95.2201 146.93 95.29C146.2 95.5899 145.439 95.8046 144.66 95.93C143.883 96.0784 143.09 96.1322 142.3 96.09V96.09Z" fill="white"/>
<path d="M142.89 76.01C142.271 77.4715 141.347 78.784 140.18 79.86C140.799 78.3986 141.723 77.086 142.89 76.01V76.01Z" fill="white"/>
<path d="M162.38 102.12C162.076 102.851 161.691 103.546 161.23 104.19C160.781 104.842 160.258 105.44 159.67 105.97C160.289 104.509 161.213 103.196 162.38 102.12V102.12Z" fill="white"/>
<path d="M146.38 109.95C145.647 109.65 144.952 109.264 144.31 108.8C143.657 108.352 143.06 107.828 142.53 107.24C143.991 107.859 145.304 108.783 146.38 109.95V109.95Z" fill="white"/>
<path d="M153.38 87.05C154.61 88.74 155.88 90.39 157.14 92.05C156.82 91.21 156.54 90.36 156.3 89.5H156.36C156.61 90.16 156.9 90.81 157.14 91.5L157.5 92.5C157.531 92.5683 157.558 92.6384 157.58 92.71C158.58 94 159.58 95.29 160.5 96.61C161.63 98.19 162.72 99.79 163.82 101.39C164.92 102.99 166.03 104.98 167.22 106.59C167.33 106.73 165.22 107.59 164.99 107.7C164.76 107.81 164.64 107.62 164.86 107.55C165.08 107.48 166.76 106.45 166.78 106.43C165.68 104.81 164.41 103.32 163.26 101.75C162.11 100.18 160.97 98.61 159.86 97.02C157.61 93.78 155.55 90.42 153.31 87.17L153.38 87.05Z" fill="#263238"/>
<path d="M138.16 98.33C138.51 99.01 138.89 99.68 139.16 100.38L139.54 101.25C139.01 98.76 138.54 96.25 137.99 93.76C139.05 97.76 140.12 101.85 141.1 105.91C142.03 109.79 143.16 113.71 143.7 117.67C144.397 117.364 145.12 117.12 145.86 116.94C145.117 117.421 144.318 117.807 143.48 118.09C142.275 114.063 141.273 109.978 140.48 105.85C140.23 104.73 140 103.61 139.76 102.49C139.5 101.81 139.19 101.16 138.88 100.49C138.57 99.82 138.29 99.07 138.01 98.36C138.07 98.32 138.14 98.28 138.16 98.33Z" fill="#263238"/>
<path d="M144.27 113.92C147.47 112.12 160.84 105.2 163.83 103.92C164.04 103.83 164.15 103.92 163.94 104.06C157.594 107.748 151.051 111.086 144.34 114.06C144.26 114.08 144.18 113.97 144.27 113.92Z" fill="#263238"/>
<path d="M510.7 376.82H206.02L250.07 126.97H554.75L510.7 376.82Z" fill="#f97316"/>
<path d="M354.35 101.09H254.64L250.07 126.97H356.78L354.35 101.09Z" fill="#f97316"/>
<g opacity="0.1">
<path d="M510.7 376.82H206.02L250.07 126.97H554.75L510.7 376.82Z" fill="black"/>
<path d="M354.35 101.09H254.64L250.07 126.97H356.78L354.35 101.09Z" fill="black"/>
</g>
<path d="M243.88 111.65C243.213 108.788 243.213 105.812 243.88 102.95C244.547 105.812 244.547 108.788 243.88 111.65V111.65Z" fill="#263238"/>
<path d="M235.02 114.21C234.002 113.154 233.125 111.971 232.41 110.69C231.661 109.436 231.073 108.092 230.66 106.69C231.681 107.74 232.559 108.92 233.27 110.2C234.018 111.459 234.606 112.806 235.02 114.21V114.21Z" fill="#263238"/>
<path d="M228.62 120.86C225.81 120.006 223.234 118.517 221.09 116.51C222.492 116.917 223.836 117.502 225.09 118.25C226.371 118.969 227.557 119.846 228.62 120.86V120.86Z" fill="#263238"/>
<path d="M226.38 129.82C223.518 130.487 220.542 130.487 217.68 129.82C220.542 129.153 223.518 129.153 226.38 129.82V129.82Z" fill="#263238"/>
<path d="M228.98 138.68C227.92 139.693 226.737 140.57 225.46 141.29C224.206 142.038 222.862 142.623 221.46 143.03C222.516 142.012 223.699 141.134 224.98 140.42C226.232 139.669 227.577 139.084 228.98 138.68V138.68Z" fill="#263238"/>
<path d="M235.62 145.07C234.769 147.884 233.28 150.464 231.27 152.61C231.677 151.206 232.265 149.862 233.02 148.61C233.733 147.324 234.607 146.135 235.62 145.07V145.07Z" fill="#263238"/>
<path d="M244.58 147.28C244.929 148.703 245.097 150.165 245.08 151.63C245.102 153.095 244.933 154.558 244.58 155.98C244.222 154.559 244.054 153.096 244.08 151.63C244.063 150.165 244.231 148.703 244.58 147.28V147.28Z" fill="#263238"/>
<path d="M253.44 144.77C254.458 145.826 255.336 147.009 256.05 148.29C256.801 149.542 257.386 150.887 257.79 152.29C255.78 150.144 254.291 147.564 253.44 144.75V144.77Z" fill="#263238"/>
<path d="M259.83 138.07C261.233 138.474 262.578 139.059 263.83 139.81C265.111 140.524 266.294 141.402 267.35 142.42C265.947 142.016 264.602 141.431 263.35 140.68C262.069 139.966 260.886 139.088 259.83 138.07V138.07Z" fill="#263238"/>
<path d="M262.04 129.11C264.905 128.443 267.885 128.443 270.75 129.11C267.885 129.777 264.905 129.777 262.04 129.11V129.11Z" fill="#263238"/>
<path d="M259.48 120.25C260.539 119.238 261.721 118.364 263 117.65C264.25 116.891 265.595 116.303 267 115.9C264.854 117.91 262.274 119.399 259.46 120.25H259.48Z" fill="#263238"/>
<path d="M252.83 113.86C253.242 112.46 253.826 111.116 254.57 109.86C255.285 108.579 256.162 107.396 257.18 106.34C256.776 107.743 256.191 109.088 255.44 110.34C254.726 111.621 253.848 112.804 252.83 113.86V113.86Z" fill="#263238"/>
<path d="M510.25 376.82H204.92L161.56 136.04H466.9L510.25 376.82Z" fill="#f97316"/>
<path d="M267.37 283.23C274.378 283.23 280.06 277.548 280.06 270.54C280.06 263.531 274.378 257.85 267.37 257.85C260.362 257.85 254.68 263.531 254.68 270.54C254.68 277.548 260.362 283.23 267.37 283.23Z" fill="#263238"/>
<path d="M367.69 283.23C374.698 283.23 380.38 277.548 380.38 270.54C380.38 263.531 374.698 257.85 367.69 257.85C360.682 257.85 355 263.531 355 270.54C355 277.548 360.682 283.23 367.69 283.23Z" fill="#263238"/>
<path d="M335.76 285.26L335.06 283.93C335 283.81 328.44 271.69 315.25 271.69C303.25 271.69 300.25 283.1 300.17 283.59L299.81 285.04L296.9 284.34L297.25 282.88C297.25 282.74 300.83 268.69 315.25 268.69C330.25 268.69 337.42 281.97 337.72 282.54L338.42 283.86L335.76 285.26Z" fill="#263238"/>
<path d="M490.09 269.57L489.88 268.57C490.53 268.43 491.17 268.28 491.81 268.11L492.06 269.11C491.38 269.28 490.75 269.43 490.09 269.57Z" fill="#263238"/>
<path d="M495.93 267.96L495.61 267.02C496.86 266.59 498.11 266.12 499.32 265.61L499.71 266.53C498.48 267.05 497.21 267.53 495.93 267.96ZM503.38 264.77L502.93 263.89C504.1 263.28 505.27 262.62 506.38 261.89L506.9 262.74C505.76 263.53 504.57 264.2 503.38 264.77ZM510.26 260.54L509.67 259.73C510.75 258.94 511.79 258.11 512.77 257.26L513.43 258.01C512.38 258.92 511.38 259.77 510.25 260.58L510.26 260.54ZM516.36 255.22L515.63 254.53C516.55 253.53 517.42 252.53 518.22 251.53L519.01 252.14C518.18 253.24 517.29 254.27 516.38 255.26L516.36 255.22ZM521.31 248.82L520.46 248.29C521.151 247.173 521.766 246.01 522.3 244.81L523.22 245.22C522.655 246.471 522.013 247.687 521.3 248.86L521.31 248.82ZM524.62 241.4L523.62 241.12C523.985 239.865 524.256 238.585 524.43 237.29L525.43 237.42C525.264 238.78 524.99 240.124 524.61 241.44L524.62 241.4ZM525.73 233.4H524.73V233.11C524.73 231.9 524.66 230.67 524.54 229.46L525.54 229.36C525.671 230.606 525.738 231.857 525.74 233.11L525.73 233.4ZM523.93 225.57C523.661 224.281 523.327 223.006 522.93 221.75L523.93 221.45C524.34 222.75 524.69 224.07 524.93 225.36L523.93 225.57ZM521.56 218.04C521.08 216.86 520.56 215.65 519.92 214.43L520.82 213.98C521.43 215.22 521.99 216.46 522.48 217.66L521.56 218.04ZM518.06 210.91C517.44 209.82 516.76 208.67 516.06 207.49L516.91 206.96C517.64 208.15 518.33 209.31 518.91 210.42L518.06 210.91ZM513.88 204.12C513.15 203.02 512.41 201.91 511.65 200.8L512.48 200.24C513.24 201.35 513.98 202.46 514.71 203.58L513.88 204.12ZM509.38 197.5C508.63 196.4 507.87 195.29 507.13 194.19L507.96 193.63C508.7 194.73 509.45 195.84 510.2 196.93L509.38 197.5ZM504.91 190.84C504.18 189.72 503.47 188.58 502.77 187.44L503.62 186.92C504.32 188.06 505.03 189.18 505.75 190.3L504.91 190.84ZM500.74 183.97C500.06 182.76 499.43 181.56 498.86 180.41L499.76 179.96C500.32 181.1 500.95 182.28 501.61 183.48L500.74 183.97ZM497.19 176.77C496.66 175.52 496.19 174.25 495.75 173.01L496.75 172.69C497.17 173.9 497.64 175.15 498.16 176.38L497.19 176.77ZM494.59 169.14C494.26 167.84 493.97 166.51 493.75 165.14L494.75 164.98C494.97 166.26 495.24 167.56 495.57 168.84L494.59 169.14ZM493.25 161.14C493.15 159.91 493.1 158.67 493.1 157.43V157.1H494.1V157.42C494.1 158.63 494.1 159.85 494.25 161.05L493.25 161.14ZM494.25 153.14L493.25 153.04C493.25 152.77 493.3 152.49 493.33 152.2C493.45 151.13 493.6 150.06 493.78 149.04L494.78 149.21C494.61 150.21 494.46 151.26 494.34 152.31C494.38 152.62 494.38 152.89 494.3 153.17L494.25 153.14ZM495.64 145.36L494.64 145.09C495.01 143.77 495.44 142.48 495.92 141.25L496.85 141.61C496.395 142.848 496.008 144.11 495.69 145.39L495.64 145.36ZM545.47 139.53C544.91 139.53 544.33 139.45 543.76 139.37C542.98 139.26 542.2 139.13 541.43 138.98L541.63 137.98C542.37 138.12 543.14 138.25 543.9 138.36C544.44 138.43 544.99 138.48 545.52 138.51L545.47 139.53ZM549.58 139.22L549.37 138.22C550.625 137.961 551.828 137.494 552.93 136.84L553.45 137.69C552.272 138.419 550.981 138.946 549.63 139.25L549.58 139.22ZM498.52 138.03L497.63 137.56C498.267 136.367 498.971 135.212 499.74 134.1L500.56 134.67C499.829 135.759 499.165 136.891 498.57 138.06L498.52 138.03ZM537.52 137.97C536.229 137.56 534.961 137.083 533.72 136.54L534.13 135.62C535.332 136.154 536.564 136.618 537.82 137.01L537.52 137.97ZM556.52 134.85L555.69 134.29C556.402 133.257 556.823 132.052 556.91 130.8L557.91 130.87C557.825 132.305 557.355 133.69 556.55 134.88L556.52 134.85ZM530.12 134.7C528.95 134.02 527.818 133.275 526.73 132.47L527.32 131.67C528.379 132.451 529.481 133.172 530.62 133.83L530.12 134.7ZM503.02 131.58L502.28 130.91C503.185 129.903 504.15 128.951 505.17 128.06L505.83 128.81C504.849 129.688 503.921 130.623 503.05 131.61L503.02 131.58ZM523.61 129.89C522.614 128.973 521.669 128.001 520.78 126.98L521.53 126.32C522.395 127.312 523.313 128.256 524.28 129.15L523.61 129.89ZM556.16 127.18C555.587 126.037 554.795 125.018 553.83 124.18L554.49 123.43C555.552 124.349 556.425 125.467 557.06 126.72L556.16 127.18ZM508.94 126.39L508.37 125.57C509.489 124.806 510.647 124.102 511.84 123.46L512.31 124.34C511.161 124.975 510.046 125.669 508.97 126.42L508.94 126.39ZM518.28 123.79C517.9 123.25 517.53 122.7 517.18 122.13L515.88 122.64L515.5 121.72L516.65 121.26C516.47 120.96 516.29 120.66 516.12 120.36L516.99 119.87C517.19 120.22 517.39 120.57 517.6 120.87C518.16 120.67 518.73 120.48 519.31 120.3L519.6 121.3C519.11 121.45 518.6 121.61 518.14 121.78C518.45 122.27 518.77 122.78 519.14 123.21L518.28 123.79ZM550.61 122.07C549.642 121.588 548.639 121.18 547.61 120.85L546.95 120.64L547.24 119.64L547.92 119.86C548.991 120.201 550.035 120.626 551.04 121.13L550.61 122.07ZM523.43 120.28L523.22 119.28C524.51 118.99 525.85 118.75 527.22 118.56L527.37 119.56C526.05 119.77 524.74 120.02 523.46 120.31L523.43 120.28ZM543.13 119.74C541.88 119.52 540.56 119.35 539.21 119.23L539.29 118.23C540.68 118.35 542.03 118.52 543.29 118.75L543.13 119.74ZM531.28 119.16L531.21 118.16C532.4 118.09 533.59 118.05 534.77 118.05H535.26V119.05H534.78C533.65 119.08 532.47 119.11 531.31 119.19L531.28 119.16ZM514.38 116.77C513.84 115.55 513.38 114.28 512.93 112.99L513.93 112.68C514.35 113.94 514.82 115.18 515.34 116.37L514.38 116.77ZM511.85 109.09C511.55 107.8 511.3 106.46 511.11 105.09L512.11 104.95C512.3 106.27 512.54 107.58 512.83 108.85L511.85 109.09ZM510.73 101.09C510.68 100.19 510.65 99.27 510.65 98.35C510.65 97.92 510.65 97.48 510.65 97.05H511.65C511.65 97.48 511.65 97.9 511.65 98.33C511.65 99.23 511.65 100.14 511.72 101.01L510.73 101.09ZM511.92 93.09L510.92 92.99C511.06 91.67 511.25 90.32 511.48 88.99L512.48 89.16C512.21 90.49 512.02 91.77 511.89 93.11L511.92 93.09ZM513.29 85.28L512.29 85.04C512.61 83.75 512.98 82.45 513.39 81.15L514.39 81.46C513.94 82.77 513.57 84.04 513.26 85.3L513.29 85.28ZM515.69 77.71L514.76 77.35C515.25 76.1 515.76 74.85 516.37 73.64L517.27 74.08C516.67 75.28 516.14 76.5 515.66 77.77L515.69 77.71ZM519.13 70.58L518.26 70.07C518.94 68.92 519.67 67.77 520.43 66.67L521.25 67.24C520.47 68.34 519.76 69.46 519.1 70.6L519.13 70.58ZM523.64 64.07L522.86 63.44C523.7 62.44 524.6 61.38 525.53 60.44L526.25 61.13C525.31 62.07 524.43 63.07 523.61 64.09L523.64 64.07ZM529.08 58.31L528.41 57.57C529.41 56.68 530.41 55.8 531.48 54.95L532.1 55.74C531.03 56.59 530.01 57.46 529.05 58.33L529.08 58.31ZM535.29 53.37L534.72 52.54C535.81 51.79 536.95 51.05 538.11 50.35L538.62 51.2C537.46 51.91 536.38 52.64 535.26 53.39L535.29 53.37ZM542.08 49.24L541.61 48.36C542.79 47.73 544.01 47.13 545.23 46.57L545.65 47.48C544.38 48.05 543.21 48.65 542.05 49.26L542.08 49.24ZM549.31 45.92L548.94 44.98C550.2 44.49 551.47 43.98 552.73 43.61L553.05 44.61C551.78 44.99 550.52 45.45 549.28 45.94L549.31 45.92Z" fill="#263238"/>
<path d="M557.02 43.39L556.77 42.39C558.01 42.07 558.77 41.93 558.77 41.93L558.95 42.93C558.95 42.93 558.23 43.08 557.02 43.39Z" fill="#263238"/>
<path d="M574.7 36.93C572.15 29.03 555.07 31.87 558.4 42.2C561.73 52.53 577.25 44.84 574.7 36.93Z" fill="#263238"/>
<path d="M549.11 33.77C549.24 30.3 554.06 27.63 560.88 28.86C567.7 30.09 574.11 34.69 574.11 34.69C574.11 34.69 567.38 38.77 560.49 39.52C553.6 40.27 548.98 37.23 549.11 33.77Z" fill="#EBEBEB"/>
<path d="M574.11 34.67C570.57 34.67 567.04 34.57 563.51 34.46C559.98 34.35 556.44 34.17 552.91 33.89C556.45 33.89 559.99 33.98 563.52 34.09C567.05 34.2 570.59 34.38 574.11 34.67Z" fill="#263238"/>
<path d="M555.96 30.68C557.97 31.6414 559.865 32.8255 561.61 34.21C560.604 33.7381 559.629 33.2037 558.69 32.61C557.743 32.0204 556.832 31.376 555.96 30.68V30.68Z" fill="#263238"/>
<path d="M565.23 34.34C563.421 35.8061 561.46 37.0734 559.38 38.12C561.198 36.6521 563.17 35.3847 565.26 34.34H565.23Z" fill="#263238"/>
<path d="M566.26 32.39C567.269 32.8745 568.152 33.5865 568.84 34.47C568.336 34.2319 567.862 33.933 567.43 33.58C566.996 33.2292 566.603 32.83 566.26 32.39V32.39Z" fill="#263238"/>
<path d="M555.61 54.32C557.74 57.06 563.21 56.4 568.02 51.42C572.83 46.44 575.38 38.95 575.38 38.95C575.38 38.95 567.5 39.55 561.49 42.95C555.48 46.35 553.47 51.57 555.61 54.32Z" fill="#EBEBEB"/>
<path d="M575.38 38.95C572.5 40.95 569.7 43.17 566.89 45.32C564.08 47.47 561.33 49.69 558.64 51.98C561.52 49.98 564.32 47.77 567.12 45.62C569.92 43.47 572.65 41.25 575.38 38.95Z" fill="#263238"/>
<path d="M562.96 52.77C563.495 51.7986 563.972 50.7969 564.39 49.77C564.816 48.7402 565.176 47.6848 565.47 46.61C564.934 47.5806 564.456 48.5823 564.04 49.61C563.619 50.6413 563.258 51.6965 562.96 52.77Z" fill="#263238"/>
<path d="M568.38 44.41C566.04 44.2849 563.694 44.409 561.38 44.78C562.546 44.85 563.714 44.85 564.88 44.78C566.053 44.7228 567.221 44.5993 568.38 44.41V44.41Z" fill="#263238"/>
<path d="M570.31 45.4C570.577 44.9061 570.785 44.3825 570.93 43.84C571.078 43.3014 571.165 42.748 571.19 42.19C570.658 43.1799 570.357 44.2773 570.31 45.4V45.4Z" fill="#263238"/>
<path d="M574.7 36.93C574.135 37.1134 573.529 37.125 572.957 36.9635C572.386 36.802 571.875 36.4745 571.49 36.0226C571.105 35.5707 570.863 35.0146 570.794 34.4249C570.725 33.8351 570.833 33.2381 571.103 32.7096C571.374 32.181 571.795 31.7447 572.314 31.4557C572.833 31.1668 573.425 31.0383 574.017 31.0866C574.609 31.1348 575.173 31.3576 575.638 31.7267C576.103 32.0958 576.449 32.5946 576.63 33.16C576.873 33.9159 576.806 34.7371 576.444 35.4437C576.082 36.1504 575.455 36.6848 574.7 36.93Z" fill="#455A64"/>
<path d="M576.54 42.64C575.976 42.8226 575.37 42.8338 574.799 42.6722C574.228 42.5105 573.718 42.1832 573.333 41.7317C572.948 41.2802 572.706 40.7248 572.637 40.1356C572.568 39.5464 572.675 38.9499 572.945 38.4215C573.214 37.8931 573.635 37.4566 574.152 37.1671C574.67 36.8776 575.262 36.7482 575.854 36.7951C576.445 36.842 577.009 37.0633 577.475 37.4308C577.941 37.7983 578.287 38.2957 578.47 38.86C578.592 39.2349 578.638 39.6301 578.607 40.023C578.576 40.416 578.468 40.7989 578.288 41.1499C578.109 41.501 577.862 41.8132 577.562 42.0689C577.262 42.3246 576.915 42.5187 576.54 42.64V42.64Z" fill="#455A64"/>
<path d="M248.69 40.09C248.211 44.6832 246.465 49.0528 243.647 52.7113C240.829 56.3699 237.049 59.1734 232.731 60.809C228.412 62.4446 223.724 62.8479 219.189 61.9741C214.654 61.1002 210.452 58.9834 207.05 55.86L194.58 57.69L200.82 46.91C199.393 43.4024 198.784 39.6157 199.04 35.8375C199.295 32.0594 200.409 28.3892 202.295 25.1057C204.181 21.8222 206.791 19.0118 209.926 16.8879C213.061 14.764 216.639 13.3826 220.388 12.8485C224.137 12.3144 227.958 12.6417 231.562 13.8055C235.165 14.9693 238.456 16.9391 241.185 19.5651C243.913 22.1912 246.007 25.4045 247.307 28.9609C248.608 32.5174 249.081 36.3234 248.69 40.09V40.09Z" fill="white"/>
<path d="M248.69 40.09C248.221 44.6808 246.49 49.0522 243.69 52.72C242.322 54.5751 240.672 56.2047 238.8 57.55C236.969 58.9457 234.949 60.0737 232.8 60.9C230.65 61.7467 228.391 62.2854 226.09 62.5C224.94 62.6032 223.784 62.6266 222.63 62.57C221.472 62.5403 220.319 62.4199 219.18 62.21C214.584 61.3644 210.315 59.2556 206.85 56.12L207.14 56.21L194.69 58.12L193.78 58.26L194.24 57.46L200.44 46.66V47.09C198.977 43.5176 198.355 39.6567 198.622 35.8056C198.889 31.9544 200.038 28.2163 201.98 24.88C203.92 21.5542 206.586 18.71 209.78 16.56C212.969 14.4386 216.596 13.0666 220.391 12.5471C224.185 12.0275 228.048 12.3738 231.69 13.56C235.293 14.7858 238.576 16.8016 241.3 19.46C244.018 22.1117 246.095 25.3476 247.376 28.9222C248.656 32.4967 249.106 36.3159 248.69 40.09ZM248.69 40.09C249.094 36.3345 248.63 32.5363 247.333 28.9888C246.036 25.4412 243.941 22.2392 241.21 19.6299C238.479 17.0206 235.185 15.0738 231.582 13.9399C227.979 12.8059 224.163 12.5152 220.43 13.09C216.734 13.637 213.214 15.0261 210.14 17.15C207.093 19.2906 204.547 22.068 202.68 25.29C200.841 28.5191 199.758 32.1225 199.51 35.83C199.266 39.5626 199.868 43.3021 201.27 46.77L201.36 46.99L201.24 47.2L194.96 57.96L194.52 57.3L207 55.55H207.17L207.29 55.66C210.626 58.765 214.76 60.8806 219.23 61.77C220.344 61.9969 221.474 62.1341 222.61 62.18C223.745 62.26 224.885 62.26 226.02 62.18C228.297 61.9966 230.538 61.5019 232.68 60.71C234.827 59.9282 236.849 58.8367 238.68 57.47C240.544 56.1356 242.196 54.5275 243.58 52.7C246.416 49.0499 248.185 44.6849 248.69 40.09Z" fill="#263238"/>
<path d="M211.72 49.12C211.701 48.7889 211.75 48.4574 211.864 48.1461C211.978 47.8348 212.155 47.5503 212.384 47.3102C212.613 47.0702 212.889 46.8797 213.194 46.7507C213.5 46.6216 213.828 46.5567 214.16 46.56C214.839 46.56 215.49 46.8297 215.97 47.3098C216.45 47.7899 216.72 48.441 216.72 49.12C216.72 49.799 216.45 50.4501 215.97 50.9302C215.49 51.4103 214.839 51.68 214.16 51.68C213.828 51.6833 213.5 51.6184 213.194 51.4893C212.889 51.3603 212.613 51.1698 212.384 50.9298C212.155 50.6897 211.978 50.4052 211.864 50.0939C211.75 49.7826 211.701 49.4511 211.72 49.12V49.12ZM212.72 43.21L212.14 23.37H216.14L215.56 43.21H212.72Z" fill="#FFC727"/>
<path d="M221.23 49.12C221.211 48.7898 221.26 48.4591 221.373 48.1485C221.487 47.8379 221.663 47.5538 221.891 47.3139C222.118 47.074 222.393 46.8833 222.697 46.7537C223.002 46.624 223.329 46.5581 223.66 46.56C224.339 46.56 224.99 46.8297 225.47 47.3098C225.95 47.7899 226.22 48.441 226.22 49.12C226.22 49.799 225.95 50.4501 225.47 50.9302C224.99 51.4103 224.339 51.68 223.66 51.68C223.329 51.6819 223.002 51.616 222.697 51.4863C222.393 51.3567 222.118 51.166 221.891 50.9261C221.663 50.6862 221.487 50.4021 221.373 50.0915C221.26 49.7809 221.211 49.4502 221.23 49.12V49.12ZM222.23 43.21L221.68 23.37H225.68L225.1 43.21H222.23Z" fill="#FFC727"/>
<path d="M230.73 49.12C230.711 48.7889 230.76 48.4574 230.874 48.1461C230.988 47.8348 231.165 47.5503 231.394 47.3102C231.623 47.0702 231.899 46.8797 232.204 46.7507C232.51 46.6216 232.838 46.5567 233.17 46.56C233.849 46.56 234.5 46.8297 234.98 47.3098C235.46 47.7899 235.73 48.441 235.73 49.12C235.73 49.799 235.46 50.4501 234.98 50.9302C234.5 51.4103 233.849 51.68 233.17 51.68C232.838 51.6833 232.51 51.6184 232.204 51.4893C231.899 51.3603 231.623 51.1698 231.394 50.9298C231.165 50.6897 230.988 50.4052 230.874 50.0939C230.76 49.7826 230.711 49.4511 230.73 49.12ZM231.73 43.21L231.15 23.37H235.15L234.58 43.21H231.73Z" fill="#FFC727"/>
</svg>
